<svg xmlns="http://www.w3.org/2000/svg" viewBox="0 0 301.24 510.41"><defs><style>.cls-1,.cls-2{stroke:#000;stroke-miterlimit:10;}.cls-2{fill:#f9f;}</style></defs><title>Ресурс 2</title><g id="Слой_2" data-name="Слой 2"><g id="Слой_1-2" data-name="Слой 1"><path class="cls-1" d="M.5,59.41Q5.62,235.3,10.74,411.21a5,5,0,0,0,7.62,4.06L298,238.93a5,5,0,0,0-1.16-9l-95.63-30.13a5,5,0,0,0-4.91,1.13L72,318.44a5,5,0,0,1-8.39-3.88L79.81,5.75a5,5,0,0,0-8-4.21L15.51,44.87,2.37,55.37A5,5,0,0,0,.5,59.41Z"/><path class="cls-1" d="M291.65,508,209.28,404.24a5,5,0,0,1-.29-5.78q17.13-26.68,34.27-53.37a5,5,0,0,1,8.22-.22,258.46,258.46,0,0,1,41.16,86.55,251.48,251.48,0,0,1,7.89,73.7A5,5,0,0,1,291.65,508Z"/><path class="cls-1" d="M81.72,211.86Q72.53,351.48,63.32,491.1a5,5,0,0,0,5.31,5.29L159.76,490a5,5,0,0,0,4.46-6.25L91.58,211a4.94,4.94,0,0,0-1.79-2.68l-.09-.07A5,5,0,0,0,81.72,211.86Z"/><path class="cls-2" d="M234.6,214.1,108.5,203.35a5,5,0,0,0-5,7q40.47,88.1,80.92,176.18A5,5,0,0,0,191.2,389c12.89-6.43,27.7-16.35,39.82-31.71,42.21-53.44,14.37-125.08,7.7-140.2A5,5,0,0,0,234.6,214.1Zm-37,104.26a5,5,0,0,1-5.94-.23c-29.42-23.54-42.86-48.62-35.93-60.34C163,245.46,196.31,242,210.83,260,223.32,275.51,219.45,303.83,197.62,318.36Z"/></g></g></svg>