<svg xmlns="http://www.w3.org/2000/svg" viewBox="0 0 1294.36 432.3"><defs><style>.cls-1,.cls-2,.cls-4{fill:violet;}.cls-1,.cls-4{stroke:#f9f;}.cls-1{stroke-linecap:round;stroke-linejoin:round;stroke-width:9px;}.cls-3{fill:#f9f;}.cls-4{font-size:213.97px;stroke-miterlimit:10;font-family:MyriadPro-Regular, Myriad Pro;}.cls-5{letter-spacing:0em;}.cls-6{letter-spacing:0em;}</style></defs><title>Ресурс 3</title><g id="Слой_2" data-name="Слой 2"><g id="Слой_1-2" data-name="Слой 1"><line class="cls-1" x1="4.5" y1="427.8" x2="1289.86" y2="427.8"/><path class="cls-2" d="M70.45,412.75l35.27-52.23-4.14-2.8L66.31,410,63,407.69c13-19.47,17-41.88,10.24-57.4,13.65-5.71,30.27-21.3,43.58-40.89l28,18.93c-13.22,19.7-21.47,41-21.65,55.75h-.85c-16.65,0-35.65,12.14-48.51,30.95Z"/><path class="cls-3" d="M116.93,310.09l27.21,18.37C131,348.18,123,368.62,122.69,383.58h-.36c-16.69,0-35.69,12.05-48.64,30.76l-2.55-1.72,34.72-51.4.55-.83-.82-.56-3.31-2.23-.83-.56-.56.83-34.71,51.4-2.52-1.7c12.73-19.32,16.69-41.46,10.21-57,13.73-5.93,29.7-20.93,43.06-40.47m-.27-1.39c-14,20.78-30.77,35.94-44.11,41.32,6.77,15,3.3,37.7-10.28,57.81l4.18,2.82,35.27-52.23,3.31,2.23L69.76,412.88,74,415.72c13.2-19.54,32.27-31.15,48.38-31.15q.67,0,1.35,0c0-14.39,7.79-35.6,21.84-56.41L116.66,308.7Z"/><path class="cls-2" d="M288.2,60C318.1,22.18,339,.5,345.59.5a1.71,1.71,0,0,1,1,.27c4.72,3.18-7.66,31.69-33.11,76.28Z"/><path class="cls-3" d="M345.6,0V1a1.24,1.24,0,0,1,.71.18c.75.5,2.55,3.6-5.56,22.29-5.64,13-15.12,31.26-27.44,52.86L288.92,59.87C318.12,23,339.28,1,345.59,1V0m0,0c-7,0-28.75,22.92-58.12,60.1l26.18,17.67C338.82,33.71,352.12,3.9,346.87.35A2.27,2.27,0,0,0,345.59,0Z"/><path class="cls-2" d="M124,299.27c19.59-33.08,43.67-70.9,69.66-109.39,30.21-44.76,61.1-87.5,87-120.33l.64-.83L306.7,85.87l-.53.92c-20.72,36.14-48.81,80.76-79.11,125.64-26,38.45-52.05,74.92-75.44,105.49Z"/><path class="cls-3" d="M281.4,69.4,306,86l-.29.52c-20.72,36.13-48.81,80.74-79.09,125.61-25.86,38.29-51.83,74.6-75.14,105.09l-26.83-18.12c19.54-33,43.53-70.64,69.4-109,30.21-44.75,61.09-87.47,87-120.31l.36-.45m-.21-1.35-.94,1.19c-25,31.73-55.43,73.59-87,120.36-27,40-51,77.79-69.92,109.82l28.39,19.17c22.63-29.55,48.77-65.93,75.75-105.88,31.56-46.77,59-90.62,79.13-125.67.25-.45.5-.88.76-1.32L281.19,68.05Z"/><text class="cls-4" transform="translate(215.35 371.23) scale(0.85 1)">Lig<tspan class="cls-5" x="270.66" y="0">h</tspan><tspan x="388.56" y="0">t </tspan><tspan class="cls-6" x="504.74" y="0">R</tspan><tspan x="620.71" y="0">eading</tspan></text></g></g></svg>